<?xml version="1.0" encoding="UTF-8"?>
<svg version="1.1" xmlns="http://www.w3.org/2000/svg" width="512" height="512">
<path d="M0 0 C168.96 0 337.92 0 512 0 C512 168.96 512 337.92 512 512 C343.04 512 174.08 512 0 512 C0 343.04 0 174.08 0 0 Z " fill="#ECECEC" transform="translate(0,0)"/>
<path d="M0 0 C16.5 0 33 0 50 0 C50 15.51 50 31.02 50 47 C65.84 47 81.68 47 98 47 C98 64.49 98 81.98 98 100 C82.16 100 66.32 100 50 100 C50 115.84 50 131.68 50 148 C33.5 148 17 148 0 148 C0 132.16 0 116.32 0 100 C-16.17 100 -32.34 100 -49 100 C-49 82.51 -49 65.02 -49 47 C-32.83 47 -16.66 47 0 47 C0 31.49 0 15.98 0 0 Z " fill="#DE0005" transform="translate(231,177)"/>
<path d="M0 0 C16.5 0 33 0 50 0 C50 15.51 50 31.02 50 47 C65.84 47 81.68 47 98 47 C98 64.49 98 81.98 98 100 C82.16 100 66.32 100 50 100 C50 115.84 50 131.68 50 148 C33.5 148 17 148 0 148 C0 132.16 0 116.32 0 100 C-16.17 100 -32.34 100 -49 100 C-49 82.51 -49 65.02 -49 47 C-32.83 47 -16.66 47 0 47 C0 31.49 0 15.98 0 0 Z M2 2 C2 17.18 2 32.36 2 48 C-1.45339844 47.98839844 -4.90679687 47.97679687 -8.46484375 47.96484375 C-11.79418852 47.95705431 -15.12353229 47.95097691 -18.45288086 47.94506836 C-20.77417451 47.94002667 -23.09546497 47.93319349 -25.41674805 47.92456055 C-28.74528795 47.91248775 -32.07378602 47.90677021 -35.40234375 47.90234375 C-36.44712387 47.89718246 -37.49190399 47.89202118 -38.56834412 47.88670349 C-40.00972496 47.88659019 -40.00972496 47.88659019 -41.48022461 47.88647461 C-42.33071884 47.884254 -43.18121307 47.88203339 -44.05747986 47.87974548 C-46.00588545 47.78519716 -46.00588545 47.78519716 -47 49 C-47.09319449 50.5348297 -47.117458 52.07392082 -47.11352539 53.61157227 C-47.11344986 54.59251358 -47.11337433 55.5734549 -47.11329651 56.5841217 C-47.10813522 57.6507756 -47.10297394 58.7174295 -47.09765625 59.81640625 C-47.0962413 60.9025975 -47.09482635 61.98878876 -47.09336853 63.1078949 C-47.08775048 66.59279075 -47.07519492 70.07762342 -47.0625 73.5625 C-47.05748733 75.91861887 -47.05292402 78.27473874 -47.04882812 80.63085938 C-47.03777519 86.42059464 -47.02101951 92.21029281 -47 98 C-41.09180929 98.04945048 -35.18373916 98.08574364 -29.27539062 98.10986328 C-27.26560365 98.1199187 -25.2558313 98.13356485 -23.24609375 98.15087891 C-20.35673412 98.17514724 -17.46756798 98.18648771 -14.578125 98.1953125 C-13.68007141 98.20563507 -12.78201782 98.21595764 -11.85675049 98.22659302 C-11.01618103 98.22674408 -10.17561157 98.22689514 -9.30957031 98.22705078 C-8.57232727 98.231492 -7.83508423 98.23593323 -7.07550049 98.24050903 C-4.69480274 97.96463374 -3.06983569 97.17901432 -1 96 C-0.67 97.32 -0.34 98.64 0 100 C0.66 100 1.32 100 2 100 C2 105.61 2 111.22 2 117 C2.66 117 3.32 117 4 117 C4 125.58 4 134.16 4 143 C9.44152803 145.72076402 13.42336224 146.13642773 19.38671875 146.09765625 C20.20372757 146.0962413 21.02073639 146.09482635 21.86250305 146.09336853 C24.47087268 146.08777294 27.07915634 146.07522129 29.6875 146.0625 C31.45637897 146.05748443 33.22525928 146.05292162 34.99414062 146.04882812 C39.32946019 146.03780496 43.66471552 146.02054338 48 146 C47.99777939 145.4406778 47.99555878 144.88135559 47.99327087 144.30508423 C47.97119418 138.49799232 47.95608339 132.69091228 47.94506836 126.88378906 C47.94003109 124.71483883 47.93320109 122.545892 47.92456055 120.37695312 C47.91246849 117.26431437 47.90676572 114.1517204 47.90234375 111.0390625 C47.89718246 110.065065 47.89202118 109.0910675 47.88670349 108.08755493 C47.88662796 107.18677216 47.88655243 106.28598938 47.88647461 105.35791016 C47.884254 104.56293121 47.88203339 103.76795227 47.87974548 102.94888306 C48 101 48 101 49 99 C52.28414305 98.04932701 53.69693408 97.89897803 57 99 C59.95213487 99.01636092 62.87542775 98.97416759 65.82421875 98.87890625 C66.58786743 98.85824097 67.35151611 98.83757568 68.13830566 98.81628418 C70.98820586 98.73757951 73.83784026 98.64947674 76.6875 98.5625 C86.2471875 98.2840625 86.2471875 98.2840625 96 98 C96 82.16 96 66.32 96 50 C82.14 49.67 68.28 49.34 54 49 C54 48.67 54 48.34 54 48 C52.35 47.67 50.7 47.34 49 47 C48.67 32.48 48.34 17.96 48 3 C42.26381698 2.14655814 42.26381698 2.14655814 36.62524414 1.88647461 C35.4388031 1.88665588 35.4388031 1.88665588 34.22839355 1.88684082 C33.01899109 1.89451477 33.01899109 1.89451477 31.78515625 1.90234375 C31.02553589 1.90335083 30.26591553 1.90435791 29.48327637 1.90539551 C26.6763353 1.9105829 23.86941595 1.92454377 21.0625 1.9375 C14.771875 1.958125 8.48125 1.97875 2 2 Z " fill="#BA0D15" transform="translate(231,177)"/>
<path d="M0 0 C16.17 0 32.34 0 49 0 C49 15.51 49 31.02 49 47 C48.67 47 48.34 47 48 47 C48 32.48 48 17.96 48 3 C32.82 2.67 17.64 2.34 2 2 C2.495 7.445 2.495 7.445 3 13 C3.01426118 15.92834978 2.99044278 18.80949022 2.87890625 21.73046875 C2.85824097 22.40742798 2.83757568 23.08438721 2.81628418 23.78186035 C2.7390002 26.2506466 2.65012809 28.71905927 2.5625 31.1875 C2.2840625 39.5096875 2.2840625 39.5096875 2 48 C-13.84 48.33 -29.68 48.66 -46 49 C-46.33 65.17 -46.66 81.34 -47 98 C-40.1525 97.855625 -33.305 97.71125 -26.25 97.5625 C-23.01558105 97.49784546 -23.01558105 97.49784546 -19.71582031 97.43188477 C-18.00324715 97.39375214 -16.29068145 97.35528219 -14.578125 97.31640625 C-13.2485376 97.2916925 -13.2485376 97.2916925 -11.89208984 97.26647949 C-11.0398584 97.24629761 -10.18762695 97.22611572 -9.30957031 97.20532227 C-8.20370575 97.18200584 -8.20370575 97.18200584 -7.07550049 97.15821838 C-4.95288714 96.99640852 -3.04586744 96.57589852 -1 96 C-1 96.66 -1 97.32 -1 98 C-0.01 98.495 -0.01 98.495 1 99 C0 100 0 100 -1.98048401 100.12025452 C-2.84874313 100.11803391 -3.71700226 100.11581329 -4.61157227 100.11352539 C-5.6062854 100.11340454 -6.60099854 100.11328369 -7.62585449 100.11315918 C-8.67873657 100.10804321 -9.73161865 100.10292725 -10.81640625 100.09765625 C-11.77865112 100.09664917 -12.740896 100.09564209 -13.7322998 100.09460449 C-17.34237858 100.0893546 -20.95244043 100.07539348 -24.5625 100.0625 C-32.626875 100.041875 -40.69125 100.02125 -49 100 C-49 82.51 -49 65.02 -49 47 C-32.83 47 -16.66 47 0 47 C0 31.49 0 15.98 0 0 Z " fill="#D82127" transform="translate(231,177)"/>
<path d="M0 0 C0.33 0 0.66 0 1 0 C1 15.51 1 31.02 1 47 C16.84 47 32.68 47 49 47 C49 64.49 49 81.98 49 100 C33.49 100 17.98 100 2 100 C2 99.67 2 99.34 2 99 C7.09195188 97.96513777 11.94926937 97.86975882 17.1171875 97.90234375 C18.25812866 97.90385437 18.25812866 97.90385437 19.42211914 97.90539551 C22.23976162 97.91059307 25.05738247 97.92455413 27.875 97.9375 C34.18625 97.958125 40.4975 97.97875 47 98 C46.67 82.49 46.34 66.98 46 51 C32.35808744 50.75050828 32.35808744 50.75050828 18.71582031 50.52197266 C17.00323945 50.48676101 15.29067297 50.45083912 13.578125 50.4140625 C12.2485376 50.39702271 12.2485376 50.39702271 10.89208984 50.37963867 C10.0398584 50.35957764 9.18762695 50.3395166 8.30957031 50.31884766 C7.20370575 50.29886215 7.20370575 50.29886215 6.07550049 50.2784729 C4 50 4 50 0 48 C0 32.16 0 16.32 0 0 Z " fill="#C8171D" transform="translate(280,177)"/>
<path d="M0 0 C16.17 0 32.34 0 49 0 C49 15.84 49 31.68 49 48 C65.5 48 82 48 99 48 C99 32.16 99 16.32 99 0 C114.84 0 130.68 0 147 0 C147 0.33 147 0.66 147 1 C131.49 1 115.98 1 100 1 C100 16.84 100 32.68 100 49 C82.18 49 64.36 49 46 49 C45 45 45 45 46 42 C46.085409 39.05035887 46.11582927 36.12496981 46.09765625 33.17578125 C46.09553383 31.88367989 46.09553383 31.88367989 46.09336853 30.56547546 C46.0877714 27.81444831 46.07521946 25.06350256 46.0625 22.3125 C46.05748463 20.4472668 46.05292179 18.58203233 46.04882812 16.71679688 C46.03780292 12.14449989 46.02054027 7.57226375 46 3 C45.17980881 2.98786972 45.17980881 2.98786972 44.3430481 2.97549438 C38.66546886 2.88961231 32.9882454 2.79011675 27.31103516 2.68261719 C25.1906531 2.64427158 23.07020474 2.60942867 20.94970703 2.578125 C17.90633402 2.53259534 14.86341968 2.47458161 11.8203125 2.4140625 C10.86818878 2.40251129 9.91606506 2.39096008 8.93508911 2.37905884 C8.05432709 2.35918915 7.17356506 2.33931946 6.26611328 2.31884766 C5.48889923 2.30552399 4.71168518 2.29220032 3.91091919 2.2784729 C2 2 2 2 0 0 Z " fill="#F6B2B2" transform="translate(182,277)"/>
<path d="M0 0 C0.66 0 1.32 0 2 0 C2.12375 0.969375 2.2475 1.93875 2.375 2.9375 C2.684375 4.4534375 2.684375 4.4534375 3 6 C3.66 6.33 4.32 6.66 5 7 C4.835 8.03125 4.67 9.0625 4.5 10.125 C4.00797906 13.99966489 3.96510296 17.78339398 4 21.6875 C4.05896142 28.50491456 3.63117857 35.21483034 3 42 C4.32 42 5.64 42 7 42 C7 42.66 7 43.32 7 44 C8.36318359 43.75443359 8.36318359 43.75443359 9.75390625 43.50390625 C15.12880056 42.73606421 20.52021545 42.8937851 25.9375 42.9375 C27.53561523 42.94426758 27.53561523 42.94426758 29.16601562 42.95117188 C31.77740291 42.96288213 34.38867124 42.97928276 37 43 C36.01 43.495 36.01 43.495 35 44 C35 44.66 35 45.32 35 46 C39.62 46 44.24 46 49 46 C49 63.82 49 81.64 49 100 C48.67 100 48.34 100 48 100 C48 82.51 48 65.02 48 47 C32.16 47 16.32 47 0 47 C0 31.49 0 15.98 0 0 Z " fill="#F7C6C7" transform="translate(281,177)"/>
<path d="M0 0 C7.59 0 15.18 0 23 0 C23 15.84 23 31.68 23 48 C18.38 48 13.76 48 9 48 C8.67 47.34 8.34 46.68 8 46 C12.8333472 45.91666643 17.23692563 46.04738513 22 47 C22 46.34 22 45.68 22 45 C20.68 45 19.36 45 18 45 C18 31.14 18 17.28 18 3 C14.828262 1.414131 11.36486178 1.62133555 7.875 1.4375 C7.12089844 1.39431641 6.36679687 1.35113281 5.58984375 1.30664062 C3.72678112 1.2005168 1.86341476 1.09974999 0 1 C0 0.67 0 0.34 0 0 Z " fill="#D10206" transform="translate(304,227)"/>
<path d="M0 0 C1.35568336 0.00333092 1.35568336 0.00333092 2.73875427 0.00672913 C3.75973709 0.00680466 4.78071991 0.00688019 5.8326416 0.00695801 C6.94304306 0.01211929 8.05344452 0.01728058 9.19749451 0.02259827 C10.89336952 0.02472069 10.89336952 0.02472069 12.62350464 0.02688599 C16.25105891 0.03250433 19.8785525 0.04505994 23.50608826 0.05775452 C25.95856133 0.06276715 28.41103536 0.06733047 30.86351013 0.07142639 C36.89022371 0.08247971 42.91690165 0.09923568 48.94358826 0.12025452 C48.94358826 0.45025452 48.94358826 0.78025452 48.94358826 1.12025452 C32.44358826 1.12025452 15.94358826 1.12025452 -1.05641174 1.12025452 C-1.05641174 16.63025452 -1.05641174 32.14025452 -1.05641174 48.12025452 C-17.22641174 48.12025452 -33.39641174 48.12025452 -50.05641174 48.12025452 C-50.05641174 65.61025452 -50.05641174 83.10025452 -50.05641174 101.12025452 C-52.05641174 99.12025452 -52.05641174 99.12025452 -52.25895691 96.90562439 C-52.23675079 95.9862912 -52.21454468 95.06695801 -52.19166565 94.11976624 C-52.17149384 93.0788382 -52.15132202 92.03791016 -52.13053894 90.96543884 C-52.09834259 89.83832489 -52.06614624 88.71121094 -52.03297424 87.54994202 C-52.0079483 86.39857758 -51.98292236 85.24721313 -51.95713806 84.06095886 C-51.87475906 80.37209915 -51.77823802 76.6837606 -51.68141174 72.99525452 C-51.62319054 70.49918227 -51.5658869 68.00308845 -51.50953674 65.50697327 C-51.37088283 59.3776548 -51.21313091 53.24924458 -51.05641174 47.12025452 C-28.28641174 46.62525452 -28.28641174 46.62525452 -5.05641174 46.12025452 C-3.91463474 43.8367005 -3.90901717 42.5012611 -3.86695862 39.96180725 C-3.84188232 38.67553688 -3.84188232 38.67553688 -3.81629944 37.36328125 C-3.802724 36.43616837 -3.78914856 35.50905548 -3.77516174 34.55384827 C-3.75675232 33.6046199 -3.7383429 32.65539154 -3.71937561 31.67739868 C-3.64050402 27.60418734 -3.57280936 23.53080724 -3.50416565 19.45741272 C-3.45257397 16.48947115 -3.39527818 13.52167798 -3.33766174 10.55384827 C-3.3240863 9.62471115 -3.31051086 8.69557404 -3.29652405 7.73828125 C-3.27144775 6.45673912 -3.27144775 6.45673912 -3.24586487 5.14930725 C-3.22707275 4.01585121 -3.22707275 4.01585121 -3.207901 2.85949707 C-2.98389753 0.2877215 -2.57068997 0.1503284 0 0 Z " fill="#FAB1AF" transform="translate(232.05641174316406,175.87974548339844)"/>
<path d="M0 0 C1.59142319 0.0001133 1.59142319 0.0001133 3.21499634 0.00022888 C4.93847794 0.00797081 4.93847794 0.00797081 6.69677734 0.01586914 C7.87033783 0.01728409 9.04389832 0.01869904 10.25302124 0.02015686 C14.0129447 0.0257685 17.77280929 0.03832301 21.53271484 0.05102539 C24.07698482 0.05603889 26.62125572 0.06060206 29.16552734 0.06469727 C35.41294337 0.07574171 41.6603249 0.09249121 47.90771484 0.11352539 C47.57771484 0.77352539 47.24771484 1.43352539 46.90771484 2.11352539 C30.07771484 2.11352539 13.24771484 2.11352539 -4.09228516 2.11352539 C-4.34187267 16.12958666 -4.34187267 16.12958666 -4.5703125 30.14599609 C-4.60551539 31.90211516 -4.6414363 33.65822004 -4.67822266 35.41430664 C-4.68958252 36.32740601 -4.70094238 37.24050537 -4.71264648 38.18127441 C-4.73270752 39.05392944 -4.75276855 39.92658447 -4.7734375 40.82568359 C-4.78676117 41.58291214 -4.80008484 42.34014069 -4.81381226 43.12031555 C-5.09228516 45.11352539 -5.09228516 45.11352539 -7.09228516 48.11352539 C-8.96524048 48.47428894 -8.96524048 48.47428894 -11.26660156 48.45410156 C-12.55771347 48.45376167 -12.55771347 48.45376167 -13.87490845 48.45341492 C-14.80515839 48.43793106 -15.73540833 48.4224472 -16.69384766 48.40649414 C-17.64544769 48.4022493 -18.59704773 48.39800446 -19.57748413 48.39363098 C-22.6243693 48.37680435 -25.67059907 48.33914493 -28.71728516 48.30102539 C-30.77977562 48.2859837 -32.84227643 48.2722944 -34.90478516 48.26000977 C-39.96753865 48.22688778 -45.0298007 48.17507823 -50.09228516 48.11352539 C-49.76228516 47.12352539 -49.43228516 46.13352539 -49.09228516 45.11352539 C-35.41129615 44.88593038 -21.76007286 45.57222687 -8.09228516 46.11352539 C-7.76228516 31.26352539 -7.43228516 16.41352539 -7.09228516 1.11352539 C-4.56484427 -0.15019505 -2.82848207 -0.00670256 0 0 Z " fill="#F9E3E2" transform="translate(234.09228515625,174.886474609375)"/>
<path d="M0 0 C5.42602205 -0.02482169 10.85201062 -0.0429175 16.27807617 -0.05493164 C18.12183203 -0.05994316 19.96558396 -0.06675415 21.80932617 -0.07543945 C24.46794612 -0.08764484 27.12651327 -0.09326025 29.78515625 -0.09765625 C31.01057884 -0.10539818 31.01057884 -0.10539818 32.26075745 -0.11329651 C36.9485648 -0.11375029 41.37608487 0.21898803 46 1 C46 2.65 46 4.3 46 6 C45.01 6 44.02 6 43 6 C43 5.34 43 4.68 43 4 C42.01 4.33 41.02 4.66 40 5 C39.505 4.505 39.505 4.505 39 4 C34.81677856 3.73290748 30.6274933 3.72865874 26.43676758 3.70483398 C24.33802644 3.6877083 22.24089716 3.64385476 20.14257812 3.59960938 C18.79949074 3.58947464 17.45638995 3.58096098 16.11328125 3.57421875 C14.89423096 3.55963623 13.67518066 3.54505371 12.41918945 3.5300293 C8.37872706 4.08539453 6.19643071 5.53159937 3 8 C3 6.68 3 5.36 3 4 C2.01 4.33 1.02 4.66 0 5 C0 3.35 0 1.7 0 0 Z " fill="#F60105" transform="translate(233,179)"/>
<path d="M0 0 C0.99 0.495 0.99 0.495 2 1 C1.67 17.17 1.34 33.34 1 50 C7.8475 49.855625 14.695 49.71125 21.75 49.5625 C24.98441895 49.49784546 24.98441895 49.49784546 28.28417969 49.43188477 C29.99675285 49.39375214 31.70931855 49.35528219 33.421875 49.31640625 C34.3082666 49.29993042 35.1946582 49.28345459 36.10791016 49.26647949 C36.9601416 49.24629761 37.81237305 49.22611572 38.69042969 49.20532227 C39.79629425 49.18200584 39.79629425 49.18200584 40.92449951 49.15821838 C43.04711286 48.99640852 44.95413256 48.57589852 47 48 C47 48.66 47 49.32 47 50 C47.99 50.495 47.99 50.495 49 51 C48 52 48 52 46.05747986 52.12025452 C45.20698563 52.11803391 44.35649139 52.11581329 43.48022461 52.11352539 C42.50581421 52.11340454 41.53140381 52.11328369 40.52746582 52.11315918 C39.49617554 52.10804321 38.46488525 52.10292725 37.40234375 52.09765625 C35.98846375 52.09614563 35.98846375 52.09614563 34.54602051 52.09460449 C31.00983471 52.08935477 27.47366619 52.07539364 23.9375 52.0625 C16.038125 52.041875 8.13875 52.02125 0 52 C0 34.84 0 17.68 0 0 Z " fill="#BB1720" transform="translate(183,225)"/>
<path d="M0 0 C0.33 0 0.66 0 1 0 C1 17.16 1 34.32 1 52 C-14.51 52 -30.02 52 -46 52 C-46 51.67 -46 51.34 -46 51 C-40.93556835 49.99922272 -36.02395736 49.78798896 -30.8828125 49.68359375 C-30.12218506 49.66494263 -29.36155762 49.6462915 -28.57788086 49.6270752 C-25.76036214 49.55922887 -22.94266889 49.49879352 -20.125 49.4375 C-13.81375 49.293125 -7.5025 49.14875 -1 49 C-0.67 32.83 -0.34 16.66 0 0 Z " fill="#A8141E" transform="translate(328,225)"/>
<path d="M0 0 C0.495 0.99 0.495 0.99 1 2 C3.01669827 3.13350534 3.01669827 3.13350534 5 4 C3.22955322 4.03758423 3.22955322 4.03758423 1.42333984 4.07592773 C-2.97129475 4.17036506 -7.36578464 4.270496 -11.76025391 4.37231445 C-13.65930792 4.41552627 -15.55839734 4.4572106 -17.45751953 4.49731445 C-20.19314223 4.5553515 -22.92858894 4.61894827 -25.6640625 4.68359375 C-26.50804596 4.70030624 -27.35202942 4.71701874 -28.22158813 4.73423767 C-32.57456334 4.84271288 -36.71327977 5.14811288 -41 6 C-40.67 4.68 -40.34 3.36 -40 2 C-35.31937189 1.10037175 -30.72959146 0.79504376 -25.9765625 0.68359375 C-25.23038666 0.66281265 -24.48421082 0.64203156 -23.71542358 0.62062073 C-21.35203492 0.5556877 -18.98854336 0.49650429 -16.625 0.4375 C-15.01431265 0.39426116 -13.40363537 0.35064523 -11.79296875 0.30664062 C-7.86208229 0.20006474 -3.93109323 0.09864208 0 0 Z " fill="#F50107" transform="translate(227,226)"/>
<path d="M0 0 C16.5 0 33 0 50 0 C45.81975037 4.18024963 38.13914256 3.08020769 32.5625 3.125 C27.78933214 3.09678423 23.19422067 2.86857354 18.47265625 2.22265625 C12.68184524 1.70120881 6.8084277 1.93112536 1 2 C0.67 1.34 0.34 0.68 0 0 Z " fill="#F8E4DE" transform="translate(231,326)"/>
<path d="M0 0 C0.598125 0.350625 1.19625 0.70125 1.8125 1.0625 C1.008125 1.18625 0.20375 1.31 -0.625 1.4375 C-1.470625 1.64375 -2.31625 1.85 -3.1875 2.0625 C-4.35175976 4.39101952 -4.34207992 5.82530184 -4.39282227 8.42041016 C-4.41300415 9.3337915 -4.43318604 10.24717285 -4.45397949 11.18823242 C-4.47045532 12.14963135 -4.48693115 13.11103027 -4.50390625 14.1015625 C-4.52255737 14.98416748 -4.5412085 15.86677246 -4.5604248 16.77612305 C-4.62883265 20.07981148 -4.68891097 23.38366813 -4.75 26.6875 C-4.894375 34.07125 -5.03875 41.455 -5.1875 49.0625 C-20.6975 49.0625 -36.2075 49.0625 -52.1875 49.0625 C-52.1875 48.7325 -52.1875 48.4025 -52.1875 48.0625 C-37.0075 48.0625 -21.8275 48.0625 -6.1875 48.0625 C-6.59538086 33.38773167 -6.59538086 33.38773167 -7.02587891 18.71362305 C-7.07276111 16.87550904 -7.11887501 15.0373752 -7.1640625 13.19921875 C-7.19588623 12.24293579 -7.22770996 11.28665283 -7.26049805 10.3013916 C-7.2913147 8.93150085 -7.2913147 8.93150085 -7.32275391 7.53393555 C-7.34496002 6.74117722 -7.36716614 5.94841888 -7.39004517 5.13163757 C-7.1875 3.0625 -7.1875 3.0625 -5.1875 0.0625 C-2.1875 -0.9375 -2.1875 -0.9375 0 0 Z " fill="#BF0B15" transform="translate(285.1875,274.9375)"/>
<path d="M0 0 C0.99 0.33 1.98 0.66 3 1 C3 17.5 3 34 3 51 C2.34 51 1.68 51 1 51 C0.88260019 38.61702895 1.02184749 26.3491755 2 14 C1.34 14 0.68 14 0 14 C0 9.38 0 4.76 0 0 Z " fill="#F4E8E3" transform="translate(178,226)"/>
<path d="M0 0 C0.66 0 1.32 0 2 0 C2.08690253 4.43737712 2.14035926 8.87453634 2.1875 13.3125 C2.22520508 15.20645508 2.22520508 15.20645508 2.26367188 17.13867188 C2.27333984 18.34716797 2.28300781 19.55566406 2.29296875 20.80078125 C2.3086792 21.91622314 2.32438965 23.03166504 2.34057617 24.1809082 C2 27 2 27 0.48168945 28.88745117 C-0.25174683 29.43816284 -0.25174683 29.43816284 -1 30 C-1.02465746 25.8882744 -1.04283959 21.77657722 -1.05493164 17.66479492 C-1.0599708 16.26504772 -1.06680216 14.8653058 -1.07543945 13.46557617 C-1.0875232 11.45754223 -1.09269807 9.44947043 -1.09765625 7.44140625 C-1.10289307 6.23170166 -1.10812988 5.02199707 -1.11352539 3.77563477 C-1 1 -1 1 0 0 Z " fill="#EC0406" transform="translate(234,192)"/>
<path d="M0 0 C0.66 0.33 1.32 0.66 2 1 C2 13.87 2 26.74 2 40 C1.67 40 1.34 40 1 40 C0.93941406 38.78441406 0.87882812 37.56882813 0.81640625 36.31640625 C0.73201668 34.73175772 0.6473679 33.14712298 0.5625 31.5625 C0.52318359 30.76005859 0.48386719 29.95761719 0.44335938 29.13085938 C0.5945704 25.24760439 0.5945704 25.24760439 -1 22 C-1.09899523 20.45044441 -1.13079524 18.89646327 -1.1328125 17.34375 C-1.13410156 16.40402344 -1.13539063 15.46429688 -1.13671875 14.49609375 C-1.13285156 13.50738281 -1.12898438 12.51867187 -1.125 11.5 C-1.12886719 10.51128906 -1.13273437 9.52257812 -1.13671875 8.50390625 C-1.13542969 7.56417969 -1.13414062 6.62445313 -1.1328125 5.65625 C-1.13168457 4.78806641 -1.13055664 3.91988281 -1.12939453 3.02539062 C-1 1 -1 1 0 0 Z " fill="#E50708" transform="translate(277,184)"/>
<path d="M0 0 C0.66 0 1.32 0 2 0 C1.99476318 0.9286084 1.98952637 1.8572168 1.98413086 2.81396484 C1.96710407 6.25423805 1.95455727 9.69446659 1.94506836 13.13476562 C1.94003486 14.62468166 1.93320758 16.11459274 1.92456055 17.60449219 C1.91245195 19.74415304 1.90676193 21.88374868 1.90234375 24.0234375 C1.89710693 25.31169434 1.89187012 26.59995117 1.88647461 27.92724609 C1.78457369 30.91405228 1.78457369 30.91405228 3 33 C7.29 33 11.58 33 16 33 C15.67 33.66 15.34 34.32 15 35 C10.05 35 5.1 35 0 35 C0 23.45 0 11.9 0 0 Z " fill="#EA030E" transform="translate(184,240)"/>
<path d="M0 0 C0.33 0 0.66 0 1 0 C1 7.26 1 14.52 1 22 C-6.26 22 -13.52 22 -21 22 C-21 21.67 -21 21.34 -21 21 C-16.32909823 20.20495289 -11.94783707 19.92569424 -7.2109375 20.0625 C-4.51198088 20.04828157 -4.51198088 20.04828157 0 19 C0 12.73 0 6.46 0 0 Z " fill="#CF030C" transform="translate(278,301)"/>
<path d="M0 0 C0 0.66 0 1.32 0 2 C0.66 2.33 1.32 2.66 2 3 C-0.37553074 4.18776537 -1.71321373 4.0882153 -4.35791016 4.02172852 C-5.25869293 4.00163223 -6.15947571 3.98153595 -7.08755493 3.96083069 C-8.54855118 3.92027809 -8.54855118 3.92027809 -10.0390625 3.87890625 C-11.53305069 3.84348976 -11.53305069 3.84348976 -13.05722046 3.80735779 C-16.24662181 3.73062353 -19.43578628 3.64664116 -22.625 3.5625 C-24.78384247 3.50928909 -26.9426966 3.45654864 -29.1015625 3.40429688 C-34.40118907 3.27499524 -39.70063891 3.1397381 -45 3 C-45 2.67 -45 2.34 -45 2 C-43.76846191 1.97494385 -42.53692383 1.9498877 -41.26806641 1.92407227 C-36.70952507 1.83007388 -32.15113882 1.72983485 -27.59277344 1.62768555 C-25.61787538 1.58430797 -23.64293913 1.542635 -21.66796875 1.50268555 C-18.8332161 1.44505127 -15.99865622 1.3813373 -13.1640625 1.31640625 C-12.27756012 1.29969376 -11.39105774 1.28298126 -10.47769165 1.26576233 C-6.81411948 1.17672763 -3.44576817 0 0 0 Z " fill="#CE0C18" transform="translate(230,273)"/>
</svg>
